/vscmnt/brussel_pixiu_data/_data_brussel/112/vsc11236/PredSimResults/SUBJ06opt3D/trackIG/worker_13.mot
version=1
nRows=4
nColumns=50
inDegrees=yes
endheader
                time	         pelvis_tilt	         pelvis_list	     pelvis_rotation	           pelvis_tx	           pelvis_ty	           pelvis_tz	       hip_flexion_r	     hip_adduction_r	      hip_rotation_r	        knee_angle_r	       ankle_angle_r	         mtp_angle_r	       hip_flexion_l	     hip_adduction_l	      hip_rotation_l	        knee_angle_l	       ankle_angle_l	         mtp_angle_l	    lumbar_extension	      lumbar_bending	     lumbar_rotation	 ercspn_r/activation	 intobl_r/activation	 extobl_r/activation	    abd_r/activation	    add_r/activation	hamstrings_r/activation	bifemsh_r/activation	glut_max_r/activation	iliopsoas_r/activation	rect_fem_r/activation	  vasti_r/activation	gastroc_r/activation	 soleus_r/activation	tib_ant_r/activation	 ercspn_l/activation	 intobl_l/activation	 extobl_l/activation	    abd_l/activation	    add_l/activation	hamstrings_l/activation	bifemsh_l/activation	glut_max_l/activation	iliopsoas_l/activation	rect_fem_l/activation	  vasti_l/activation	gastroc_l/activation	 soleus_l/activation	tib_ant_l/activation	
          1.12779044	        -12.91155424	         -0.92523871	          8.96566709	          2.03002278	          0.89086125	         -0.01041295	         45.41544946	         -4.50006825	         -4.75628870	        -10.21711035	         -1.26353715	          0.24062777	         -2.13346800	         -1.43380640	          1.85029638	        -24.05085780	          7.28649590	         46.39711780	         -6.60652586	         -1.47426071	         -2.21795972	          0.24234540	          0.09385282	          0.00999999	          0.00999999	          0.14221429	          0.00999999	          0.28784941	          0.02437001	          0.14613836	          0.03660186	          0.00999999	          0.05135121	          0.01676527	          0.49426549	          0.22738815	          0.00999999	          0.00999999	          0.05585250	          0.04712297	          0.05182413	          0.61176870	          0.05583705	          0.03164471	          0.04803792	          0.07296675	          0.23799218	          0.36117681	          0.01796072	
          1.13906834	        -12.75599216	         -0.96146584	          9.29872562	          2.05680050	          0.89060705	         -0.00962543	         45.31440593	         -4.58729736	         -5.83793081	        -13.00290400	         -1.75636166	          0.25562970	         -3.85577422	         -1.88042904	          1.37027224	        -23.51207324	          4.02210097	         48.38343691	         -6.12470455	         -1.26263803	         -2.55147821	          0.20400044	          0.07900301	          0.00999999	          0.00999999	          0.13770471	          0.04443640	          0.24230460	          0.12556042	          0.12301571	          0.03081055	          0.00999999	          0.04322620	          0.01411260	          0.55371645	          0.25293059	          0.00999999	          0.00999999	          0.04701527	          0.03966696	          0.11457569	          0.74705491	          0.04700227	          0.07738792	          0.04043715	          0.06142163	          0.20033601	          0.30402982	          0.01511889	
          1.15034624	        -12.58037037	         -1.06521872	          9.60773170	          2.08375942	          0.89011999	         -0.00877689	         45.13594212	         -4.66590205	         -6.59960848	        -16.09409110	         -1.98813782	          0.18300418	         -5.29106757	         -2.40897653	          0.78790926	        -23.54421298	          1.01396689	         49.41429396	         -5.62182667	         -0.97874094	         -2.86486804	          0.17172259	          0.06650281	          0.00999999	          0.09040284	          0.14839617	          0.06419695	          0.20396610	          0.17244107	          0.10355162	          0.02593557	          0.00999999	          0.03638676	          0.01187964	          0.62939248	          0.21291079	          0.00999999	          0.00999999	          0.03957631	          0.03339068	          0.13273514	          0.62885259	          0.03956536	          0.36801076	          0.03403901	          0.05170323	          0.17134246	          0.25592488	          0.01272671	
          1.16162415	        -12.39254189	         -1.22761405	          9.89811158	          2.11045212	          0.88958607	         -0.00777659	         45.05291203	         -4.65265847	         -7.10746195	        -19.36613311	         -2.03553621	          0.13791562	         -6.24893538	         -3.01844389	          0.13890141	        -24.43170351	         -1.68864894	         49.38195293	         -5.15371146	         -0.63933684	         -3.16544232	          0.15819087	          0.05598044	          0.00999999	          0.16474769	          0.22610126	          0.07761079	          0.17169368	          0.38979811	          0.08716723	          0.02183193	          0.00999999	          0.03062949	          0.00999999	          0.63557728	          0.26519501	          0.00999999	          0.00999999	          0.03331437	          0.02810746	          0.11173320	          0.52935276	          0.03330516	          0.61596705	          0.02865320	          0.04352251	          0.14423190	          0.21543132	          0.01071304	
